<?xml version="1.0" standalone="no"?>
<!DOCTYPE svg PUBLIC "-//W3C//DTD SVG 20010904//EN"
 "http://www.w3.org/TR/2001/REC-SVG-20010904/DTD/svg10.dtd">
<svg version="1.0" xmlns="http://www.w3.org/2000/svg"
 width="1272.000000pt" height="585.000000pt" viewBox="0 0 1272.000000 585.000000"
 preserveAspectRatio="xMidYMid meet">

<g transform="translate(0.000000,585.000000) scale(0.100000,-0.100000)"
fill="#000000" stroke="none">
<path d="M10762 5750 c-79 -11 -236 -36 -349 -55 l-206 -35 -191 15 c-879 67
-2188 102 -2861 75 -849 -34 -1704 -168 -2136 -335 -151 -58 -280 -133 -544
-313 -196 -134 -806 -597 -1070 -813 -38 -32 -116 -94 -173 -139 l-103 -81
-427 -105 c-776 -192 -1114 -295 -1467 -449 -276 -120 -485 -247 -600 -365
l-70 -72 50 35 c172 120 411 189 660 191 129 1 143 -1 181 -22 61 -35 68 -53
72 -179 4 -98 2 -118 -17 -155 -31 -65 -56 -74 -206 -82 -166 -8 -322 -29
-405 -55 -104 -33 -184 -87 -320 -217 -115 -110 -130 -122 -172 -128 -50 -7
-93 -3 -169 19 l-46 13 -11 -36 c-80 -270 -125 -902 -87 -1196 26 -198 66
-285 173 -374 117 -97 227 -138 557 -206 121 -26 240 -51 265 -58 59 -16 116
-69 201 -190 76 -106 115 -141 234 -211 105 -62 220 -106 325 -124 124 -22
406 -13 515 15 98 27 278 114 366 179 75 55 206 202 279 313 27 41 55 83 62
93 14 18 133 42 363 71 1049 134 4918 238 5810 156 61 -6 239 -38 398 -72
l287 -62 66 -107 c84 -135 200 -275 286 -343 309 -248 790 -303 1151 -131 153
72 341 222 432 343 37 50 64 66 135 82 187 41 337 117 375 191 10 18 15 57 15
107 0 46 6 98 16 123 8 24 22 90 30 147 15 109 30 148 97 246 51 76 72 134 99
276 41 210 25 621 -38 1000 -9 52 -18 97 -21 100 -3 3 -23 -16 -45 -43 -31
-36 -44 -45 -53 -37 -12 10 -27 53 -105 305 -49 161 -109 273 -185 349 -36 36
-85 77 -109 91 -70 41 -182 74 -305 90 -63 9 -117 18 -120 21 -8 7 68 377 79
388 8 8 404 -29 436 -41 48 -18 -37 89 -195 247 -81 80 -169 179 -197 220 -67
98 -235 373 -270 441 -48 95 -167 265 -334 477 -28 35 -50 69 -50 76 0 8 35
38 78 67 91 63 178 142 198 181 20 39 5 62 -53 84 -75 27 -393 29 -581 4z
m-4202 -267 c0 -58 -14 -536 -30 -1061 -17 -526 -30 -978 -28 -1005 l3 -50
140 174 c268 331 285 353 285 365 0 7 7 17 15 21 8 5 36 36 62 69 26 34 84
106 129 160 87 107 528 668 898 1144 l229 295 231 -3 c306 -3 506 -13 506 -23
0 -17 -151 -533 -390 -1329 -133 -443 -268 -897 -300 -1010 -32 -113 -81 -279
-109 -370 -84 -276 -298 -997 -335 -1130 -19 -69 -42 -145 -51 -170 -9 -25
-45 -144 -80 -264 -36 -121 -70 -223 -77 -228 -16 -10 -1009 -10 -1024 0 -7 5
62 251 217 767 267 891 245 813 223 794 -9 -7 -62 -72 -118 -144 -129 -167
-298 -379 -343 -430 -19 -22 -45 -54 -56 -72 -12 -18 -85 -110 -162 -205 -77
-95 -152 -189 -165 -208 -14 -19 -39 -48 -57 -63 -18 -16 -33 -34 -33 -39 0
-6 -25 -40 -55 -77 -30 -36 -85 -104 -121 -151 -82 -105 -134 -160 -150 -160
-16 0 -30 65 -157 701 l-103 515 68 230 c38 126 106 357 152 514 46 157 171
578 279 935 107 358 208 695 225 750 96 329 255 861 259 868 14 24 23 -17 23
-110z m3245 61 c225 -8 413 -18 417 -22 4 -4 1 -36 -8 -72 -15 -67 -185 -644
-279 -950 -30 -96 -118 -386 -196 -645 -77 -258 -180 -600 -229 -760 -48 -159
-156 -517 -239 -795 -83 -278 -178 -593 -211 -700 -33 -107 -82 -268 -109
-358 -27 -90 -52 -166 -56 -170 -9 -9 -1021 -9 -1030 0 -9 9 29 154 90 348 26
80 95 309 155 510 60 201 156 523 214 715 58 193 129 433 159 535 30 102 116
388 190 635 74 248 149 495 165 550 16 55 84 280 150 500 66 220 137 455 156
523 37 126 51 161 70 175 6 4 49 5 96 2 47 -3 269 -12 495 -21z m-3421 -22 c4
-7 -263 -875 -408 -1327 -36 -110 -90 -283 -121 -385 -31 -102 -149 -480 -262
-840 -113 -360 -259 -828 -324 -1040 -66 -212 -130 -419 -144 -460 -13 -41
-47 -148 -75 -237 l-51 -162 -37 -10 c-46 -13 -956 -94 -998 -89 l-31 3 39
130 c45 151 297 981 434 1430 135 443 182 596 187 625 3 14 30 102 61 195 50
156 168 543 427 1400 55 182 118 387 140 456 l40 126 47 11 c52 12 363 69 747
136 253 45 320 52 329 38z m4276 -97 c102 -20 220 -45 263 -57 l77 -20 73 -92
c185 -230 274 -348 437 -581 96 -137 186 -264 199 -281 l23 -32 -27 -93 c-75
-264 -270 -908 -283 -936 -10 -21 -71 -73 -193 -163 -98 -73 -184 -139 -190
-146 -9 -12 -8 -19 8 -37 11 -12 47 -60 79 -107 32 -47 69 -98 82 -114 20 -26
23 -36 17 -80 -4 -28 -19 -89 -32 -136 -14 -47 -47 -159 -73 -250 l-48 -165
-99 -7 c-303 -21 -480 -103 -684 -315 -75 -79 -105 -119 -144 -194 -76 -147
-105 -257 -112 -422 l-6 -139 -463 4 c-254 1 -465 6 -468 9 -3 3 14 75 38 160
50 178 239 802 254 840 14 34 53 39 323 39 l207 0 52 39 c65 49 73 60 99 145
28 89 26 114 -9 156 l-29 35 -248 6 c-136 3 -249 6 -250 7 -15 10 19 134 162
607 52 171 102 339 111 374 l18 64 251 -5 250 -5 68 50 c75 55 88 74 111 164
22 82 20 96 -11 142 l-28 40 -255 3 -255 3 3 25 c4 30 43 161 117 395 30 94
88 285 130 425 84 283 177 570 207 642 17 39 24 47 42 43 11 -2 104 -20 206
-40z m-5658 -297 c-17 -57 -93 -308 -170 -558 -77 -250 -193 -628 -257 -840
-63 -212 -142 -470 -175 -575 -32 -104 -90 -293 -128 -420 -96 -317 -297 -959
-319 -1019 -17 -47 -32 -60 -268 -243 -446 -345 -539 -414 -546 -400 -3 6 -9
62 -12 122 -8 140 -27 216 -87 340 -111 230 -378 458 -694 591 -65 27 -102 48
-104 59 -3 15 2 17 30 12 207 -35 630 -89 650 -84 32 8 104 62 130 98 11 14
69 192 129 395 60 203 133 448 163 544 45 145 149 493 293 980 14 47 30 96 36
109 12 24 148 134 317 257 52 38 144 107 204 154 61 47 163 123 227 170 64 47
226 167 360 268 206 155 244 180 247 163 2 -11 -10 -67 -26 -123z m6155 -3129
c141 -19 345 -116 451 -213 39 -36 174 -212 198 -258 9 -18 30 -80 45 -138 25
-90 29 -123 29 -235 0 -200 -32 -315 -124 -454 -56 -83 -201 -241 -223 -241
-8 0 -27 -12 -42 -27 -28 -28 -79 -53 -206 -101 -68 -26 -75 -26 -307 -27
-177 0 -240 3 -249 12 -7 7 -21 13 -31 13 -22 0 -161 69 -238 118 -108 68
-196 161 -257 272 -20 36 -45 81 -57 100 -51 85 -82 384 -52 500 69 266 202
443 436 580 89 52 160 79 245 95 88 16 279 18 382 4z m-8843 -43 c88 -25 183
-64 260 -110 149 -89 306 -272 367 -429 28 -73 32 -99 40 -236 12 -210 0 -279
-71 -422 -65 -130 -185 -268 -303 -348 -69 -47 -200 -106 -282 -126 -84 -22
-287 -24 -410 -5 -273 41 -546 258 -657 521 -74 177 -77 457 -7 644 23 63 96
176 159 248 110 125 292 226 480 268 104 23 330 20 424 -5z"/>
<path d="M10829 1929 c-102 -15 -227 -69 -344 -150 -63 -43 -158 -129 -143
-129 3 0 -9 -15 -26 -33 -37 -40 -90 -135 -116 -212 -10 -30 -17 -55 -15 -55
2 0 -2 -15 -10 -33 -24 -59 -30 -222 -11 -318 18 -87 85 -246 118 -275 10 -10
18 -23 18 -31 0 -22 171 -185 233 -222 177 -104 391 -143 595 -107 181 32 316
103 460 244 81 79 86 87 147 207 80 160 103 375 57 525 -59 188 -180 353 -335
459 -77 52 -205 108 -289 125 -82 17 -243 19 -339 5z m221 -719 c20 -20 28
-93 12 -116 -12 -19 -49 -34 -82 -34 -61 0 -107 77 -76 126 31 46 111 59 146
24z"/>
<path d="M1860 1886 c-161 -50 -250 -106 -381 -244 -159 -167 -209 -276 -217
-478 -7 -179 27 -319 110 -456 42 -70 89 -128 98 -123 10 6 42 -30 34 -37 -11
-12 112 -99 201 -144 130 -64 223 -85 375 -86 79 0 152 5 200 16 78 16 280
107 280 126 0 5 7 10 15 10 22 0 151 126 200 195 106 150 149 282 149 460 -1
230 -77 402 -251 566 -81 76 -159 126 -264 168 -98 39 -176 51 -339 50 -112 0
-148 -4 -210 -23z m272 -697 c28 -15 50 -72 39 -101 -11 -28 -38 -53 -68 -62
-26 -8 -78 16 -93 43 -40 75 47 160 122 120z"/>
</g>
</svg>
